<?xml version="1.0" encoding="iso-8859-1"?>
<!-- Generator: Adobe Illustrator 16.0.0, SVG Export Plug-In . SVG Version: 6.00 Build 0)  -->
<!DOCTYPE svg PUBLIC "-//W3C//DTD SVG 1.1//EN" "http://www.w3.org/Graphics/SVG/1.1/DTD/svg11.dtd">
<svg version="1.1" id="Capa_1" xmlns="http://www.w3.org/2000/svg" xmlns:xlink="http://www.w3.org/1999/xlink" x="0px" y="0px"
	 width="556.664px" height="556.664px" viewBox="0 0 556.664 556.664" style="enable-background:new 0 0 556.664 556.664;"
	 xml:space="preserve">
<g>
	<g>
		<path style="fill:#FFFFFF" d="M545.777,241.469l-45.257-60.229l-13.474-74.125c-4.179-23.001-22.545-40.669-45.696-43.954l-74.597-10.579l-61.93-42.885
			C289.253-1.08,269.607-2.982,252.276,4.598c-3.837,1.678-7.478,3.803-10.843,6.333l-60.232,45.262l-74.125,13.474
			c-4.132,0.75-8.171,1.988-12.019,3.664c-17.078,7.464-29.313,23.573-31.934,42.031l-10.574,74.588L9.655,251.897
			c-13.31,19.221-12.821,44.697,1.23,63.391l45.265,60.217l13.463,74.124c4.184,23.012,22.545,40.669,45.702,43.963l74.596,10.584
			l61.93,42.885c15.327,10.615,35.459,12.572,52.547,5.096c3.843-1.678,7.498-3.812,10.854-6.328l60.217-45.267l74.14-13.474
			c4.122-0.746,8.172-1.979,12.003-3.65c17.083-7.467,29.319-23.571,31.938-42.036l10.574-74.596l42.896-61.941
			C560.323,285.633,559.825,260.154,545.777,241.469z M278.333,476.4c-109.222,0-198.074-88.856-198.074-198.073
			c0-109.22,88.857-198.074,198.074-198.074c109.211,0,198.069,88.854,198.069,198.074C476.401,387.544,387.55,476.4,278.333,476.4z
			"/>
		<path style="fill:#FFFFFF" d="M243.194,242.587h44.864c8.549,0,15.492-7.031,15.492-15.493c0-8.484-6.943-15.431-15.492-15.431h-44.864
			c-8.564,0-15.503,6.952-15.503,15.431C227.69,235.556,234.629,242.587,243.194,242.587z"/>
		<path style="fill:#FFFFFF" d="M278.333,98.933c-98.913,0-179.391,80.476-179.391,179.394c0,98.912,80.478,179.391,179.391,179.391
			c98.922,0,179.391-80.479,179.391-179.391C457.724,179.409,377.255,98.933,278.333,98.933z M413.647,247.465l2.154,4.453
			l0.745,3.576l-0.497,65.417c-0.248,44.429-36.412,80.82-80.924,80.82h-92.968c-44.511,0-80.903-36.392-80.903-80.82v-94.448
			c0-44.514,36.392-80.973,80.903-80.973h56.587c20.889,2.485,51.294,20.381,62.5,44.18c3.086,6.68,4.712,7.695,7.26,27.499
			c1.377,10.18,2.081,17.72,6.628,21.903c6.41,5.823,30.209,1.893,34.91,5.584L413.647,247.465z"/>
		<path style="fill:#FFFFFF" d="M334.345,304.311h-91.151c-8.564,0-15.503,6.918-15.503,15.41c0,8.368,6.939,15.41,15.503,15.41h91.151
			c8.513,0,15.41-7.042,15.41-15.41C349.76,311.229,342.862,304.311,334.345,304.311z"/>
	</g>
</g>
<g>
</g>
<g>
</g>
<g>
</g>
<g>
</g>
<g>
</g>
<g>
</g>
<g>
</g>
<g>
</g>
<g>
</g>
<g>
</g>
<g>
</g>
<g>
</g>
<g>
</g>
<g>
</g>
<g>
</g>
</svg>
