<?xml version="1.0" encoding="utf-8"?>
<!-- Generator: Adobe Illustrator 19.1.0, SVG Export Plug-In . SVG Version: 6.00 Build 0)  -->
<svg version="1.1" id="Layer_1" xmlns="http://www.w3.org/2000/svg" xmlns:xlink="http://www.w3.org/1999/xlink" x="0px" y="0px"
	 viewBox="0 0 960 560" style="enable-background:new 0 0 960 560;" xml:space="preserve">
<g>
	<g>
		<path d="M153.2,212.2c20.6-20.6,41.2-41.2,61.8-61.8c3-3,5.9-5.9,8.9-8.9c5.5-5.5-3-14-8.5-8.5c-20.6,20.6-41.2,41.2-61.8,61.8
			c-3,3-5.9,5.9-8.9,8.9C139.3,209.2,147.8,217.7,153.2,212.2L153.2,212.2z"/>
	</g>
</g>
<g>
	<g>
		<path d="M215.5,141.5c20.6,20.6,41.2,41.2,61.8,61.8c3,3,5.9,5.9,8.9,8.9c5.5,5.5,14-3,8.5-8.5c-20.6-20.6-41.2-41.2-61.8-61.8
			c-3-3-5.9-5.9-8.9-8.9C218.5,127.6,210,136.1,215.5,141.5L215.5,141.5z"/>
	</g>
</g>
<g>
	<g>
		<path d="M284.5,208c0,29.2,0,58.4,0,87.6c0,4.1,0,8.3,0,12.4c0,7.7,12,7.7,12,0c0-29.2,0-58.4,0-87.6c0-4.1,0-8.3,0-12.4
			C296.5,200.3,284.5,200.3,284.5,208L284.5,208z"/>
	</g>
</g>
<g>
	<g>
		<path d="M290,302.5c-29.2,0-58.4,0-87.6,0c-4.1,0-8.3,0-12.4,0c-7.7,0-7.7,12,0,12c29.2,0,58.4,0,87.6,0c4.1,0,8.3,0,12.4,0
			C297.7,314.5,297.7,302.5,290,302.5L290,302.5z"/>
	</g>
</g>
<g>
	<g>
		<path d="M142.5,208c0,29.2,0,58.4,0,87.6c0,4.1,0,8.3,0,12.4c0,7.7,12,7.7,12,0c0-29.2,0-58.4,0-87.6c0-4.1,0-8.3,0-12.4
			C154.5,200.3,142.5,200.3,142.5,208L142.5,208z"/>
	</g>
</g>
<g>
	<g>
		<path d="M148.5,314c41.3,0.1,82.6,0.3,123.9,0.4c5.9,0,11.8,0,17.6,0.1c7.7,0,7.7-12,0-12c-41.3-0.1-82.6-0.3-123.9-0.4
			c-5.9,0-11.8,0-17.6-0.1C140.8,302,140.8,314,148.5,314L148.5,314z"/>
	</g>
</g>
</svg>
