<?xml version="1.0" encoding="iso-8859-1"?>
<!-- Generator: Adobe Illustrator 17.1.0, SVG Export Plug-In . SVG Version: 6.00 Build 0)  -->
<!DOCTYPE svg PUBLIC "-//W3C//DTD SVG 1.1//EN" "http://www.w3.org/Graphics/SVG/1.1/DTD/svg11.dtd">
<svg version="1.1" id="Capa_1" xmlns="http://www.w3.org/2000/svg" xmlns:xlink="http://www.w3.org/1999/xlink" x="0px" y="0px"
	 viewBox="0 0 220.08 220.08" style="enable-background:new 0 0 220.08 220.08;" xml:space="preserve">
<path d="M38.654,67.042h142.772v71.964H38.654V67.042z M220.08,156.617L220.08,156.617c0,10.88-8.82,19.7-19.7,19.7H19.7
	c-10.88,0-19.7-8.82-19.7-19.7l0,0c0-2.978,2.414-5.392,5.392-5.392h10.26V49.155c0-2.978,2.414-5.392,5.392-5.392h177.991
	c2.978,0,5.392,2.414,5.392,5.392v102.07h10.26C217.665,151.225,220.08,153.639,220.08,156.617z M27.87,144.399
	c0,2.978,2.414,5.392,5.392,5.392h153.556c2.978,0,5.392-2.414,5.392-5.392V61.65c0-2.978-2.414-5.392-5.392-5.392H33.262
	c-2.978,0-5.392,2.414-5.392,5.392V144.399z"/>
<g>
</g>
<g>
</g>
<g>
</g>
<g>
</g>
<g>
</g>
<g>
</g>
<g>
</g>
<g>
</g>
<g>
</g>
<g>
</g>
<g>
</g>
<g>
</g>
<g>
</g>
<g>
</g>
<g>
</g>
</svg>
