<?xml version="1.0" encoding="iso-8859-1"?>
<!-- Generator: Adobe Illustrator 16.0.0, SVG Export Plug-In . SVG Version: 6.00 Build 0)  -->
<!DOCTYPE svg PUBLIC "-//W3C//DTD SVG 1.1//EN" "http://www.w3.org/Graphics/SVG/1.1/DTD/svg11.dtd">
<svg version="1.1" id="Capa_1" xmlns="http://www.w3.org/2000/svg" xmlns:xlink="http://www.w3.org/1999/xlink" x="0px" y="0px"
	 width="18.45px" height="18.45px" viewBox="0 0 18.45 18.45" style="enable-background:new 0 0 18.45 18.45;" xml:space="preserve"
	>
<g>
	<path d="M8.976,3.873c0.437-0.229,0.822-0.541,1.116-0.891c0.6-0.711,1.064-1.686,0.982-2.982c-0.029,0-0.062,0-0.092,0
		C9.866,0.159,8.996,0.659,8.391,1.353c-0.598,0.682-1.108,1.601-1.017,2.89C8.005,4.31,8.535,4.106,8.976,3.873z M14.274,10.125
		c-0.158-1.923,0.875-3.075,1.979-3.832c-0.649-0.928-1.583-1.6-2.962-1.794c-0.766-0.107-1.479,0.001-2.082,0.194
		c-0.295,0.096-0.58,0.221-0.86,0.327c-0.292,0.112-0.577,0.241-0.902,0.278C9.208,5.324,8.961,5.252,8.74,5.175
		C8.119,4.956,7.505,4.649,6.823,4.539C5.746,4.367,4.73,4.759,4.095,5.154C2.701,6.025,1.85,7.448,1.73,9.593
		c0.001,0.011-0.003,0.019-0.013,0.021c0,0.253,0,0.506,0,0.759c0.213,2.938,1.302,5.067,2.728,6.808
		c0.478,0.579,1.032,1.137,1.906,1.271c0.105,0,0.212,0,0.317,0c1.188-0.147,1.897-0.901,3.331-0.738
		c0.565,0.063,1.053,0.324,1.536,0.513c0.492,0.19,1.19,0.285,1.744,0.094c0.94-0.33,1.576-1.27,2.09-2.02
		c0.566-0.828,1.027-1.72,1.363-2.748c0-0.007,0-0.015,0-0.021C15.446,12.923,14.417,11.88,14.274,10.125z"/>
</g>
<g>
</g>
<g>
</g>
<g>
</g>
<g>
</g>
<g>
</g>
<g>
</g>
<g>
</g>
<g>
</g>
<g>
</g>
<g>
</g>
<g>
</g>
<g>
</g>
<g>
</g>
<g>
</g>
<g>
</g>
</svg>
