<?xml version="1.0" encoding="iso-8859-1"?>
<!-- Generator: Adobe Illustrator 18.1.1, SVG Export Plug-In . SVG Version: 6.00 Build 0)  -->
<svg version="1.1" id="Capa_1" xmlns="http://www.w3.org/2000/svg" xmlns:xlink="http://www.w3.org/1999/xlink" x="0px" y="0px"
	 viewBox="0 0 478.165 478.165" style="enable-background:new 0 0 478.165 478.165;" xml:space="preserve">
<g>
	<path id="Tumblr_2_" d="M281.041,390.74c-8.069-4.742-15.441-12.811-18.35-20.701c-2.969-7.89-2.65-23.709-2.65-51.522V195.908
		h111.532v-85.332H260.022V0h-68.517c-3.068,24.645-8.746,44.947-16.895,60.886c-8.248,15.979-19.027,29.646-32.515,41.082
		c-13.488,11.376-35.484,20.163-54.411,26.199v67.74h65.489v167.597c0,21.956,2.271,38.691,6.933,50.108
		c4.582,11.516,12.91,22.414,24.865,32.734c11.954,10.081,26.458,18.011,43.354,23.589c16.975,5.359,29.965,8.228,52.06,8.228
		c19.346,0,37.357-1.992,54.152-5.818c16.656-3.925,35.444-10.659,55.945-20.202v-75.57c-24.227,15.859-48.474,23.649-72.781,23.649
		C303.834,400.224,291.7,397.016,281.041,390.74z"/>
</g>
<g>
</g>
<g>
</g>
<g>
</g>
<g>
</g>
<g>
</g>
<g>
</g>
<g>
</g>
<g>
</g>
<g>
</g>
<g>
</g>
<g>
</g>
<g>
</g>
<g>
</g>
<g>
</g>
<g>
</g>
</svg>
