<?xml version="1.0" encoding="iso-8859-1"?>
<!-- Generator: Adobe Illustrator 18.0.0, SVG Export Plug-In . SVG Version: 6.00 Build 0)  -->
<!DOCTYPE svg PUBLIC "-//W3C//DTD SVG 1.1//EN" "http://www.w3.org/Graphics/SVG/1.1/DTD/svg11.dtd">
<svg version="1.1" id="Capa_1" xmlns="http://www.w3.org/2000/svg" xmlns:xlink="http://www.w3.org/1999/xlink" x="0px" y="0px"
	 viewBox="0 0 225 225" style="enable-background:new 0 0 225 225;" xml:space="preserve">
<path d="M222.216,2.785L181.773,0L98.658,83.113c-25.989-9.605-56.332-3.99-77.212,16.885c-28.595,28.594-28.595,74.956,0,103.557
	c28.601,28.594,74.963,28.595,103.556,0c20.877-20.879,26.492-51.223,16.885-77.211l19.335-19.336l-13.493-13.496
	c-3.185-3.184-3.184-8.348,0-11.531c3.186-3.186,8.349-3.186,11.533-0.001l13.492,13.497l19.299-19.299l-13.496-13.492
	c-3.186-3.185-3.185-8.348,0-11.532c3.184-3.184,8.348-3.186,11.532,0l13.495,13.491L225,43.229L222.216,2.785z M89.832,192.359
	c-5.067,5.069-13.287,5.069-18.353,0l-38.838-38.836c-5.068-5.068-5.068-13.288,0-18.355c5.069-5.068,13.288-5.068,18.356,0
	l38.837,38.836C94.901,179.072,94.901,187.291,89.832,192.359z"/>
<g>
</g>
<g>
</g>
<g>
</g>
<g>
</g>
<g>
</g>
<g>
</g>
<g>
</g>
<g>
</g>
<g>
</g>
<g>
</g>
<g>
</g>
<g>
</g>
<g>
</g>
<g>
</g>
<g>
</g>
</svg>
