<?xml version="1.0" encoding="iso-8859-1"?>
<!-- Generator: Adobe Illustrator 18.0.0, SVG Export Plug-In . SVG Version: 6.00 Build 0)  -->
<!DOCTYPE svg PUBLIC "-//W3C//DTD SVG 1.1//EN" "http://www.w3.org/Graphics/SVG/1.1/DTD/svg11.dtd">
<svg version="1.1" id="Capa_1" xmlns="http://www.w3.org/2000/svg" xmlns:xlink="http://www.w3.org/1999/xlink" x="0px" y="0px"
	 viewBox="0 0 267.945 267.945" style="enable-background:new 0 0 267.945 267.945;" xml:space="preserve">
<path d="M133.973,55.973c-73.994,0-133.973,78-133.973,78s59.979,78,133.973,78s133.973-78,133.973-78
	S207.967,55.973,133.973,55.973z M133.973,179.58c-25.186,0-45.605-20.422-45.605-45.607s20.42-45.605,45.605-45.605
	s45.607,20.42,45.607,45.605S159.158,179.58,133.973,179.58z M157.391,115.332l-18.643,18.641l18.643,18.641
	c-5.336,6.375-13.348,10.438-22.32,10.438c-16.055,0-29.078-13.025-29.078-29.078c0-16.051,13.023-29.076,29.078-29.076
	C144.043,104.896,152.055,108.959,157.391,115.332z"/>
<g>
</g>
<g>
</g>
<g>
</g>
<g>
</g>
<g>
</g>
<g>
</g>
<g>
</g>
<g>
</g>
<g>
</g>
<g>
</g>
<g>
</g>
<g>
</g>
<g>
</g>
<g>
</g>
<g>
</g>
</svg>
