<?xml version="1.0" encoding="iso-8859-1"?>
<!-- Generator: Adobe Illustrator 18.0.0, SVG Export Plug-In . SVG Version: 6.00 Build 0)  -->
<!DOCTYPE svg PUBLIC "-//W3C//DTD SVG 1.1//EN" "http://www.w3.org/Graphics/SVG/1.1/DTD/svg11.dtd">
<svg version="1.1" id="Capa_1" xmlns="http://www.w3.org/2000/svg" xmlns:xlink="http://www.w3.org/1999/xlink" x="0px" y="0px"
	 viewBox="0 0 210 210" style="enable-background:new 0 0 210 210;" xml:space="preserve">
<path d="M207.862,0L40.698,30.112v8.744v98.138c-0.672-0.037-1.347-0.059-2.027-0.059c-20.178,0-36.533,16.357-36.533,36.532
	C2.138,193.644,18.493,210,38.671,210c20.176,0,36.531-16.356,36.531-36.533c0-0.224-0.014-0.446-0.018-0.669h0.018V71.499
	l98.156-17.682v70.567c-0.672-0.037-1.348-0.059-2.027-0.059c-20.178,0-36.533,16.356-36.533,36.532
	c0,20.177,16.355,36.533,36.533,36.533c20.174,0,36.531-16.356,36.531-36.533c0-0.225-0.014-0.445-0.018-0.669h0.018V0z"/>
<g>
</g>
<g>
</g>
<g>
</g>
<g>
</g>
<g>
</g>
<g>
</g>
<g>
</g>
<g>
</g>
<g>
</g>
<g>
</g>
<g>
</g>
<g>
</g>
<g>
</g>
<g>
</g>
<g>
</g>
</svg>
