<?xml version="1.0" encoding="iso-8859-1"?>
<!-- Generator: Adobe Illustrator 18.0.0, SVG Export Plug-In . SVG Version: 6.00 Build 0)  -->
<!DOCTYPE svg PUBLIC "-//W3C//DTD SVG 1.1//EN" "http://www.w3.org/Graphics/SVG/1.1/DTD/svg11.dtd">
<svg version="1.1" id="Capa_1" xmlns="http://www.w3.org/2000/svg" xmlns:xlink="http://www.w3.org/1999/xlink" x="0px" y="0px"
	 viewBox="0 0 232.662 232.662" style="enable-background:new 0 0 232.662 232.662;" xml:space="preserve">
<path d="M172.971,72.281V31.896h17.761V0H41.931v31.896h17.762v40.385c0,17.775,8.238,33.658,21.09,44.049
	c-12.852,10.393-21.09,26.274-21.09,44.051v40.385H41.931v31.896h148.801v-31.896h-17.761v-40.385
	c0-17.777-8.238-33.658-21.089-44.051C164.732,105.939,172.971,90.057,172.971,72.281z M147.79,160.381v40.385H84.873v-40.385
	c0-17.348,14.112-31.459,31.458-31.459C133.678,128.922,147.79,143.033,147.79,160.381z M84.873,72.281V31.896h62.917v40.385
	c0,17.346-14.112,31.459-31.459,31.459C98.985,103.74,84.873,89.627,84.873,72.281z"/>
<g>
</g>
<g>
</g>
<g>
</g>
<g>
</g>
<g>
</g>
<g>
</g>
<g>
</g>
<g>
</g>
<g>
</g>
<g>
</g>
<g>
</g>
<g>
</g>
<g>
</g>
<g>
</g>
<g>
</g>
</svg>
