<?xml version="1.0" encoding="iso-8859-1"?>
<!-- Generator: Adobe Illustrator 18.0.0, SVG Export Plug-In . SVG Version: 6.00 Build 0)  -->
<!DOCTYPE svg PUBLIC "-//W3C//DTD SVG 1.1//EN" "http://www.w3.org/Graphics/SVG/1.1/DTD/svg11.dtd">
<svg version="1.1" id="Capa_1" xmlns="http://www.w3.org/2000/svg" xmlns:xlink="http://www.w3.org/1999/xlink" x="0px" y="0px"
	 viewBox="0 0 238.449 238.449" style="enable-background:new 0 0 238.449 238.449;" xml:space="preserve">
<path d="M215.021,23.447C199.898,8.326,179.796,0,158.411,0c-21.383,0-41.489,8.328-56.609,23.447
	C86.681,38.57,78.353,58.674,78.353,80.057c0,14.547,3.863,28.494,11.084,40.688l-7.219,7.221l-3.711-3.713L0.019,202.74
	l35.709,35.709l78.487-78.488l-3.712-3.713l7.22-7.221c12.196,7.225,26.143,11.086,40.688,11.088
	c21.385,0,41.488-8.33,56.611-23.451C246.232,105.451,246.234,54.666,215.021,23.447z M189.861,111.504
	c-8.4,8.402-19.57,13.029-31.449,13.029c-11.877,0-23.047-4.629-31.449-13.031c-8.401-8.398-13.028-19.566-13.028-31.445
	s4.625-23.049,13.026-31.449c8.402-8.4,19.57-13.025,31.451-13.025c11.881,0,23.049,4.625,31.449,13.023
	C207.2,65.949,207.2,94.164,189.861,111.504z"/>
<g>
</g>
<g>
</g>
<g>
</g>
<g>
</g>
<g>
</g>
<g>
</g>
<g>
</g>
<g>
</g>
<g>
</g>
<g>
</g>
<g>
</g>
<g>
</g>
<g>
</g>
<g>
</g>
<g>
</g>
</svg>
