<?xml version="1.0" encoding="iso-8859-1"?>
<!-- Generator: Adobe Illustrator 18.0.0, SVG Export Plug-In . SVG Version: 6.00 Build 0)  -->
<!DOCTYPE svg PUBLIC "-//W3C//DTD SVG 1.1//EN" "http://www.w3.org/Graphics/SVG/1.1/DTD/svg11.dtd">
<svg version="1.1" id="Capa_1" xmlns="http://www.w3.org/2000/svg" xmlns:xlink="http://www.w3.org/1999/xlink" x="0px" y="0px"
	 viewBox="0 0 245.783 245.783" style="enable-background:new 0 0 245.783 245.783;" xml:space="preserve">
<path d="M175.914,117.239c-14.184,0-27.219,4.869-37.566,13.008v67.326c0,23.865-19.414,43.279-43.279,43.279
	c-23.865,0-43.281-19.414-43.281-43.279h30.914c0,6.818,5.547,12.365,12.367,12.365c6.818,0,12.365-5.547,12.365-12.365v-67.328
	c-10.346-8.137-23.381-13.006-37.564-13.006c-18.547,0-35.145,8.305-46.311,21.385H0C0,74.274,49.455,21.491,112.426,16.181v-0.785
	c0-5.779,4.686-10.465,10.465-10.465s10.465,4.686,10.465,10.465v0.785c62.975,5.31,112.428,58.094,112.428,122.443h-23.559
	C211.059,125.544,194.461,117.239,175.914,117.239z"/>
<g>
</g>
<g>
</g>
<g>
</g>
<g>
</g>
<g>
</g>
<g>
</g>
<g>
</g>
<g>
</g>
<g>
</g>
<g>
</g>
<g>
</g>
<g>
</g>
<g>
</g>
<g>
</g>
<g>
</g>
</svg>
