<?xml version="1.0" encoding="iso-8859-1"?>
<!-- Generator: Adobe Illustrator 18.0.0, SVG Export Plug-In . SVG Version: 6.00 Build 0)  -->
<!DOCTYPE svg PUBLIC "-//W3C//DTD SVG 1.1//EN" "http://www.w3.org/Graphics/SVG/1.1/DTD/svg11.dtd">
<svg version="1.1" id="Capa_1" xmlns="http://www.w3.org/2000/svg" xmlns:xlink="http://www.w3.org/1999/xlink" x="0px" y="0px"
	 viewBox="0 0 231.578 231.578" style="enable-background:new 0 0 231.578 231.578;" xml:space="preserve">
<path d="M115.789,231.578c63.848,0,115.789-51.941,115.789-115.789C231.578,51.943,179.637,0,115.789,0C51.943,0,0,51.943,0,115.789
	C0,179.637,51.943,231.578,115.789,231.578z M115.789,31.578c46.434,0,84.211,37.777,84.211,84.211S162.223,200,115.789,200
	s-84.21-37.777-84.21-84.211S69.355,31.578,115.789,31.578z M76.243,160.32l-7.223-7.658l34.138-32.195V56.842h25.262v46.316h40.547
	v25.264h-58.9L76.243,160.32z"/>
<g>
</g>
<g>
</g>
<g>
</g>
<g>
</g>
<g>
</g>
<g>
</g>
<g>
</g>
<g>
</g>
<g>
</g>
<g>
</g>
<g>
</g>
<g>
</g>
<g>
</g>
<g>
</g>
<g>
</g>
</svg>
