<?xml version="1.0" encoding="iso-8859-1"?>
<!-- Generator: Adobe Illustrator 18.0.0, SVG Export Plug-In . SVG Version: 6.00 Build 0)  -->
<!DOCTYPE svg PUBLIC "-//W3C//DTD SVG 1.1//EN" "http://www.w3.org/Graphics/SVG/1.1/DTD/svg11.dtd">
<svg version="1.1" id="Capa_1" xmlns="http://www.w3.org/2000/svg" xmlns:xlink="http://www.w3.org/1999/xlink" x="0px" y="0px"
	 viewBox="0 0 224.766 224.766" style="enable-background:new 0 0 224.766 224.766;" xml:space="preserve">
<path d="M219.907,29.84l-2.578-10.83h-42.844V0H49.048v19.01H7.437L4.859,29.84c-1.327,5.572-12.28,55.311,11.376,85.262
	c7.527,9.529,21.867,20.889,47.437,20.889h0.691c7.16,8.264,16.439,14.631,26.998,18.264v28.467H59.912v42.045h104.942v-42.045
	h-31.448v-28.889c10.051-3.695,18.882-9.9,25.764-17.842h1.926c25.568,0,39.908-11.359,47.436-20.889
	C232.187,85.15,221.234,35.412,219.907,29.84z M49.044,105.438c-4.598-1.672-7.772-4.127-10.662-7.773
	c-10.006-12.625-9.807-35.434-7.955-50.467h18.621L49.044,105.438z M186.412,97.629c-2.894,3.664-6.611,6.32-11.223,7.998v-58.43
	h19.133C196.113,62.07,196.337,85.063,186.412,97.629z"/>
<g>
</g>
<g>
</g>
<g>
</g>
<g>
</g>
<g>
</g>
<g>
</g>
<g>
</g>
<g>
</g>
<g>
</g>
<g>
</g>
<g>
</g>
<g>
</g>
<g>
</g>
<g>
</g>
<g>
</g>
</svg>
